<svg width="31" height="20" viewBox="0 0 31 20" fill="none" xmlns="http://www.w3.org/2000/svg">
<path d="M15.1215 10.9915C13.9515 13.408 12.348 16.6795 11.553 18.1555C10.7835 19.4995 10.143 19.3195 9.636 18.1915C7.878 14.0365 4.266 6.75399 2.568 2.67099C2.2545 1.91799 2.0175 1.43649 1.794 1.24599C1.5675 1.05849 1.101 0.945991 0.39 0.905491C0.129 0.876991 0 0.813991 0 0.708991V0.140491L0.0645 0.0834909C1.221 0.0774909 6.819 0.0834909 6.819 0.0834909L6.882 0.140491V0.683491C6.882 0.833491 6.7875 0.903991 6.6 0.903991L5.895 0.939991C5.2905 0.978991 4.9875 1.14549 4.9875 1.48749C4.9875 1.65549 5.0535 1.89999 5.196 2.23899C6.549 5.54799 11.2215 15.397 11.2215 15.397L11.3925 15.4555L14.4075 9.43749L13.8045 8.10249L11.73 4.02099C11.73 4.02099 11.3325 3.20349 11.1945 2.93049C10.284 1.12599 10.305 1.03299 9.3855 0.909991C9.126 0.879991 8.994 0.846991 8.994 0.722491V0.137491L9.069 0.0819911H14.436L14.5785 0.126991V0.690991C14.5785 0.822991 14.484 0.878491 14.295 0.878491L13.9095 0.936991C12.9195 1.01349 13.083 1.41399 13.74 2.71599L15.7185 6.78399L17.916 2.40099C18.282 1.60149 18.207 1.39899 18.0555 1.21749C17.9685 1.11249 17.673 0.939991 17.04 0.917491L16.788 0.890491C16.7219 0.890583 16.6577 0.867794 16.6065 0.825992C16.5801 0.808513 16.5585 0.784625 16.5438 0.756559C16.5291 0.728492 16.5218 0.697161 16.5225 0.665491V0.129991L16.599 0.0744909C18.159 0.0639909 21.6555 0.0744909 21.6555 0.0744909L21.7305 0.129991V0.675991C21.7305 0.827491 21.6555 0.897991 21.489 0.897991C20.6805 0.933991 20.511 1.01649 20.208 1.44699C20.058 1.67799 19.7385 2.18199 19.401 2.74449L16.5225 8.08899L16.4415 8.25699L19.9335 15.4015L20.1465 15.463L25.644 2.40699C25.8375 1.87899 25.8045 1.50399 25.5645 1.28799C25.317 1.07199 25.131 0.945991 24.4905 0.918991L23.9655 0.897991C23.8977 0.900389 23.8309 0.880932 23.775 0.842491C23.7492 0.826403 23.7276 0.804415 23.7119 0.778336C23.6963 0.752257 23.687 0.722835 23.685 0.692491V0.150991L23.7585 0.0939909H29.964L30.015 0.150991V0.696991C30.015 0.846991 29.922 0.921991 29.754 0.921991C28.9425 0.957991 28.344 1.14699 27.9495 1.44849C27.555 1.76799 27.252 2.21949 27.0285 2.78349C27.0285 2.78349 21.972 14.3635 20.2425 18.217C19.5855 19.477 18.9255 19.3645 18.363 18.178C17.6475 16.7125 16.146 13.444 15.054 11.0365L15.1215 10.9915Z" fill="white"/>
</svg>
