<svg width="35" height="29" viewBox="0 0 35 29" fill="none" xmlns="http://www.w3.org/2000/svg">
<path d="M34.4645 3.99863C33.212 4.55363 31.8665 4.92863 30.452 5.09813C31.9115 4.22482 33.0034 2.85033 33.524 1.23113C32.1528 2.04562 30.652 2.61893 29.087 2.92613C28.0346 1.80243 26.6406 1.05762 25.1215 0.807344C23.6024 0.557066 22.0431 0.81532 20.6858 1.54201C19.3286 2.2687 18.2492 3.42318 17.6152 4.82619C16.9813 6.2292 16.8283 7.80226 17.18 9.30113C14.4015 9.16163 11.6834 8.43946 9.20212 7.18149C6.72082 5.92352 4.53175 4.15788 2.77699 1.99913C2.17699 3.03413 1.83199 4.23413 1.83199 5.51213C1.83132 6.66263 2.11464 7.7955 2.65681 8.81023C3.19897 9.82497 3.98323 10.6902 4.93999 11.3291C3.8304 11.2938 2.7453 10.994 1.77499 10.4546V10.5446C1.77488 12.1582 2.33304 13.7222 3.35476 14.9711C4.37649 16.2201 5.79884 17.077 7.38049 17.3966C6.35116 17.6752 5.27199 17.7162 4.22449 17.5166C4.67073 18.9051 5.53998 20.1192 6.71054 20.989C7.8811 21.8589 9.29436 22.3409 10.7525 22.3676C8.27724 24.3108 5.22032 25.3648 2.07349 25.3601C1.51606 25.3603 0.959101 25.3277 0.405487 25.2626C3.5997 27.3164 7.318 28.4064 11.1155 28.4021C23.9705 28.4021 30.998 17.7551 30.998 8.52113C30.998 8.22113 30.9905 7.91813 30.977 7.61813C32.3439 6.62959 33.5239 5.40548 34.4615 4.00313L34.4645 3.99863Z" fill="white"/>
</svg>
